<svg width="155" height="34" viewBox="0 0 155 34" fill="none" xmlns="http://www.w3.org/2000/svg">
<g clip-path="url(#clip0_5_727)">
<path d="M42.16 10.2C41.9275 9.42727 41.4625 8.73181 40.9975 8.1909C39.99 7.18636 38.5175 6.64545 36.27 6.56818C35.1075 6.4909 34.0225 6.72272 33.015 7.26363C32.0075 7.72727 31.2325 8.42272 30.7675 9.19545H30.6125L30.225 7.3409C30.1475 7.03181 29.915 6.87727 29.605 6.87727H27.745C27.435 6.87727 27.125 7.10909 27.125 7.49545V23.8773C27.125 24.1864 27.3575 24.4954 27.745 24.4954H30.3025C30.6125 24.4954 30.9225 24.2636 30.9225 23.8773V15.6091C30.9225 13.4454 31.31 11.9 32.0075 10.9727C32.395 10.5091 32.86 10.1227 33.4025 9.8909C33.945 9.65909 34.6425 9.50454 35.4175 9.50454C36.58 9.50454 37.4325 9.81363 37.975 10.5091C38.5175 11.2045 38.75 12.2091 38.75 13.5227V23.7227C38.75 24.0318 38.9825 24.3409 39.37 24.3409H41.9275C42.0825 24.3409 42.2375 24.2636 42.3925 24.1864C42.5475 24.1091 42.625 23.9545 42.7025 23.8773V12.9818C42.5475 11.9 42.3925 10.9727 42.16 10.2ZM133.688 8.80908C133.532 8.73181 133.455 8.65454 133.3 8.65454H130.665C130.51 8.65454 130.355 8.73181 130.278 8.80908C130.2 8.88636 130.122 9.0409 130.122 9.19545V23.7227C130.122 23.8773 130.2 23.9545 130.278 24.0318C130.433 24.1091 130.51 24.1864 130.665 24.1864H133.3C133.455 24.1864 133.61 24.1091 133.688 24.0318C133.842 23.9545 133.842 23.8 133.842 23.6454V9.11818C133.842 9.0409 133.765 8.88636 133.688 8.80908ZM61.38 10.8954C61.07 9.96818 60.5275 9.11818 59.9075 8.42272C59.21 7.72727 58.435 7.18636 57.5825 6.87727C56.6525 6.4909 55.645 6.33636 54.4825 6.33636C53.2425 6.33636 52.1575 6.56818 51.15 6.95454C50.1825 7.35913 49.3305 7.99626 48.67 8.80908C47.275 10.4318 46.5775 12.6727 46.5775 15.5318C46.5775 16.9227 46.7325 18.1591 47.12 19.2409C47.5075 20.3227 48.05 21.25 48.825 22.0227C50.375 23.5682 52.4675 24.4182 55.1025 24.4182C56.265 24.4182 57.195 24.3409 58.28 24.2636C59.21 24.0318 59.985 23.8 60.605 23.4909C60.8375 23.3364 60.9925 23.1045 60.9925 22.8727V21.25C60.9925 21.0182 60.915 20.8636 60.6825 20.7091C60.5275 20.5545 60.295 20.5545 60.0625 20.6318C59.4425 20.8636 58.8225 21.0954 58.125 21.25C57.195 21.4045 56.265 21.5591 55.2575 21.5591C54.4825 21.5591 53.785 21.4045 53.165 21.1727C52.545 20.9409 52.08 20.6318 51.615 20.1682C50.84 19.3954 50.4525 18.3136 50.2975 17C50.2975 16.7682 50.2975 16.6136 50.4525 16.4591C50.6075 16.3045 50.7625 16.2273 50.9175 16.2273H61.07C61.4575 16.2273 61.7675 15.9182 61.7675 15.5318V14.1409C61.845 12.9818 61.69 11.8227 61.38 10.8954ZM50.4525 12.75C50.6075 11.7454 50.995 10.8954 51.5375 10.2773C51.8475 9.8909 52.3125 9.58181 52.7775 9.42727C53.2425 9.27272 53.785 9.11818 54.3275 9.11818C54.9475 9.11818 55.4125 9.19545 55.8775 9.42727C56.3425 9.58181 56.73 9.8909 57.1175 10.2773C57.66 10.8182 57.97 11.6682 58.125 12.75C58.125 12.9818 58.125 13.1364 57.97 13.2909C57.815 13.4454 57.66 13.5227 57.505 13.5227H51.0725C50.84 13.5227 50.685 13.4454 50.53 13.2909C50.4525 13.2136 50.375 13.0591 50.375 12.9045C50.4525 12.8273 50.4525 12.75 50.4525 12.75ZM80.29 6.79999C80.135 6.64545 79.98 6.56818 79.7475 6.56818H77.1125C76.88 6.56818 76.6475 6.72272 76.4925 6.95454L73.0825 16.6909C72.385 18.8545 72.075 20.0909 71.9975 20.7864H71.92C71.8425 19.7818 71.455 18.4682 70.835 16.6909L67.5025 6.95454C67.425 6.72272 67.1925 6.56818 66.8825 6.56818H64.325C64.0925 6.56818 63.9375 6.64545 63.7825 6.79999C63.705 6.95454 63.6275 7.18636 63.705 7.3409L69.8275 23.4909C69.905 23.6454 69.9825 23.7227 70.06 23.8C70.1375 23.8773 70.2925 23.8773 70.4475 23.8773H73.625C73.8575 23.8773 74.09 23.7227 74.245 23.4909L80.445 7.3409V7.10909C80.445 7.03181 80.3675 6.87727 80.29 6.79999ZM96.4875 9.65909C96.1775 8.88636 95.79 8.26818 95.17 7.80454C94.0075 6.79999 92.38 6.33636 90.1325 6.33636C89.2025 6.33636 88.195 6.4909 86.955 6.72272C86.1025 6.87727 85.3275 7.18636 84.7075 7.41818C84.475 7.49545 84.32 7.64999 84.2425 7.88181C84.165 8.11363 84.165 8.34545 84.2425 8.57727L84.7075 9.58181C84.785 9.81363 84.94 9.96818 85.1725 10.0454C85.405 10.1227 85.6375 10.1227 85.87 10.0454C86.4125 9.8909 86.8775 9.65909 87.4975 9.50454C88.35 9.27272 89.2025 9.11818 90.055 9.11818C90.5975 9.11818 91.0625 9.19545 91.45 9.27272C91.8375 9.42727 92.1475 9.58181 92.4575 9.8909C93 10.4318 93.2325 11.2818 93.2325 12.3636V13.2909L90.21 13.3682C87.4975 13.4454 85.405 13.9864 84.0875 14.9136C82.77 15.8409 82.0725 17.1545 82.0725 19.0091C82.0725 19.8591 82.2275 20.6318 82.46 21.25C82.6925 21.8682 83.08 22.4864 83.545 22.95C84.01 23.4136 84.63 23.7227 85.3275 23.9545C86.025 24.1864 86.8 24.3409 87.575 24.3409C88.8925 24.3409 89.9775 24.1864 90.83 23.8C91.2175 23.6454 91.6825 23.3364 92.1475 22.95C92.535 22.5636 93 22.1773 93.3875 21.6364H93.5425L94.085 23.4136C94.1625 23.8 94.55 24.0318 94.9375 24.0318H95.945C96.1775 24.0318 96.41 23.9545 96.565 23.7227C96.72 23.5682 96.7975 23.3364 96.7975 23.1045V12.3636C96.875 11.2818 96.7975 10.4318 96.4875 9.65909ZM86.7225 20.8636C86.2575 20.4773 86.025 19.8591 86.025 19.0864C86.025 18.0045 86.4125 17.2318 87.1875 16.7682C87.9625 16.2273 89.2025 15.9954 90.985 15.9182L92.3025 15.8409C92.535 15.8409 92.7675 15.9182 92.9225 16.0727C93.0775 16.2273 93.2325 16.4591 93.2325 16.6909V17.2318C93.2325 17.9273 93.155 18.5454 92.9225 19.0091C92.69 19.55 92.38 20.0136 91.9925 20.3227C91.605 20.7091 91.0625 21.0182 90.52 21.1727C89.9775 21.3273 89.3575 21.4818 88.7375 21.4818C87.8075 21.5591 87.11 21.3273 86.7225 20.8636ZM89.745 9.19545H89.59H89.745ZM89.125 9.19545H88.97H89.125ZM88.505 9.27272H88.35C88.4275 9.34999 88.4275 9.34999 88.505 9.27272ZM87.885 9.42727H87.73C87.73 9.50454 87.8075 9.42727 87.885 9.42727ZM126.092 6.87727C126.092 6.64545 126.015 6.56818 125.938 6.4909C125.86 6.41363 125.705 6.33636 125.55 6.33636C125.162 6.25909 125.007 6.25909 124.542 6.25909C123.38 6.25909 122.45 6.56818 121.597 7.18636C120.667 7.80454 119.892 8.65454 119.35 9.65909H119.195L118.808 7.03181C118.73 6.72272 118.498 6.56818 118.265 6.56818H116.25C115.94 6.56818 115.707 6.79999 115.707 7.18636V23.5682C115.707 23.8773 115.94 24.1864 116.25 24.1864H118.808C119.118 24.1864 119.35 23.9545 119.35 23.5682V14.9909C119.35 14.2182 119.505 13.5227 119.66 12.9045C119.892 12.2864 120.202 11.7454 120.667 11.2818C121.52 10.2773 122.76 9.81363 124.232 9.81363C124.62 9.81363 125.007 9.8909 125.317 9.8909C125.472 9.8909 125.55 9.8909 125.705 9.81363C125.86 9.73636 125.938 9.58181 125.938 9.34999L126.092 6.87727ZM133.533 2.85909C133.145 2.47272 132.603 2.31818 131.982 2.31818C131.285 2.31818 130.742 2.47272 130.355 2.85909C129.967 3.16818 129.812 3.70909 129.812 4.40454C129.812 5.02272 129.967 5.56363 130.355 5.87272C130.742 6.18181 131.285 6.41363 131.982 6.41363C132.68 6.41363 133.145 6.25909 133.533 5.87272C133.842 5.56363 134.075 5.02272 134.075 4.40454C134.075 3.63181 133.92 3.16818 133.533 2.85909Z" fill="white"/>
<path d="M3.255 6.33637C3.4875 5.64091 6.8975 5.79546 7.905 5.95C10.23 6.41364 12.1675 6.95455 14.6475 8.88637C16.8175 10.6636 18.91 13.5227 18.445 15.9955C18.3675 16.4591 18.29 16.9227 17.825 17.3864C16.6625 18.4682 15.655 18.8545 14.4925 19.2409C12.71 19.9364 10.7725 20.2455 10.23 20.3227C9.145 20.4773 7.2075 20.4773 6.8975 20.3227C6.4325 20.0136 7.595 19.55 8.37 17.7727C8.99 16.15 8.9125 14.1409 8.9125 13.6773C8.2925 7.65 2.8675 7.41819 3.255 6.33637ZM0.154999 21.5591C0.309999 21.25 1.705 22.0227 4.4175 22.4091C7.13 22.7955 9.3 22.5636 10.6175 22.3318C15.965 21.6364 18.6 19.3182 19.1425 20.0136C19.6075 20.7091 17.825 23.4136 15.2675 24.9591C11.625 27.2 7.75 26.35 6.7425 26.1182C2.8675 25.1136 -0.0775006 22.1 0.154999 21.5591Z" fill="white"/>
<path d="M111.367 21.1727C111.29 21.0955 111.135 21.0955 111.058 21.0955C110.283 21.25 109.507 21.4045 108.81 21.4045C108.112 21.4045 107.493 21.1727 107.183 20.7864C106.718 20.3227 106.562 19.7045 106.562 18.7773V9.81364C106.562 9.65909 106.717 9.50455 106.872 9.50455H111.058C111.29 9.50455 111.367 9.35 111.367 9.19546V7.10909C111.367 6.87728 111.213 6.8 111.058 6.8H106.872C106.717 6.8 106.562 6.64546 106.562 6.49091V3.4C106.562 3.16818 106.408 3.09091 106.253 3.09091H104.625C104.47 3.09091 104.315 3.16818 104.315 3.32273L103.153 6.64546C103.153 6.72273 103.075 6.72273 103.075 6.72273L102.997 6.8L100.75 7.95909C100.672 8.03637 100.595 8.11364 100.595 8.26818V9.27273C100.595 9.50455 100.75 9.58182 100.905 9.58182H102.533C102.688 9.58182 102.842 9.73637 102.842 9.89091V18.8545C102.842 19.7818 102.92 20.5545 103.153 21.25C103.385 21.9455 103.695 22.4864 104.16 22.95C104.625 23.4136 105.167 23.7227 105.787 23.9545C106.407 24.1864 107.182 24.2636 108.112 24.2636C108.887 24.2636 109.508 24.1864 110.128 24.1091C110.593 24.0318 111.058 23.9545 111.445 23.8C111.6 23.7227 111.678 23.5682 111.678 23.4909V21.4045C111.445 21.3273 111.445 21.25 111.367 21.1727ZM154.38 11.5136C154.07 10.4318 153.605 9.42728 152.985 8.65455C151.822 7.10909 150.118 6.25909 147.87 6.25909C145.545 6.25909 143.763 7.10909 142.678 8.88637H142.522C142.445 8.26818 142.29 7.80455 142.212 7.41818C142.212 7.34091 142.135 7.18637 142.135 7.10909C142.057 6.8 141.747 6.56818 141.437 6.56818H139.732C139.345 6.56818 139.035 6.87727 139.035 7.26364V30.9091C139.035 31.2955 139.345 31.6045 139.732 31.6045H141.98C142.367 31.6045 142.678 31.2955 142.678 30.9091V24.4955C142.678 24.1864 142.6 23.5682 142.522 22.4864V22.1773V21.7909H142.755C143.375 22.5636 144.15 23.1818 145.003 23.5682C145.855 23.9545 146.862 24.1864 147.947 24.1864C149.032 24.1864 150.04 24.0318 150.892 23.6455C151.745 23.2591 152.442 22.6409 153.062 21.8682C153.682 21.0955 154.147 20.0909 154.458 19.0091C154.767 17.9273 154.922 16.6136 154.922 15.2227C154.767 13.8318 154.69 12.5955 154.38 11.5136ZM149.265 20.4773C149.188 20.5545 149.11 20.6318 149.033 20.6318L148.955 20.7091C148.877 20.7091 148.877 20.7864 148.8 20.7864C148.335 21.0182 147.715 21.1727 147.095 21.1727C146.32 21.1727 145.622 21.0182 145.08 20.7864C144.537 20.5545 144.072 20.1682 143.762 19.7045C143.452 19.2409 143.22 18.6227 142.987 17.85C142.832 17.0773 142.755 16.15 142.755 15.1455V14.6045C142.755 13.7545 142.832 13.0591 142.91 12.4409C142.91 12.3636 142.91 12.2864 142.987 12.2091C142.987 12.1318 142.988 12.0545 143.065 11.9773V11.9C143.143 11.7455 143.142 11.5909 143.22 11.5136V11.4364C143.298 11.2818 143.297 11.2045 143.375 11.05V10.9727C143.452 10.8955 143.452 10.8182 143.53 10.6636L143.607 10.5864C143.607 10.5091 143.685 10.5091 143.685 10.4318C144.305 9.58182 145.39 9.19546 146.862 9.19546C147.56 9.19546 148.103 9.35 148.645 9.58182C149.11 9.81364 149.575 10.2 149.962 10.6636C150.66 11.5909 150.97 13.1364 150.97 15.0682C150.97 16.0727 150.892 16.9227 150.737 17.6182C150.582 18.3909 150.272 19.0091 149.962 19.55C149.962 19.6273 149.885 19.6273 149.885 19.7045L149.807 19.7818L149.575 20.0136L149.497 20.0909L149.265 20.3227C149.343 20.4 149.265 20.4 149.265 20.4773Z" fill="white"/>
</g>
<defs>
<clipPath id="clip0_5_727">
<rect width="155" height="34" fill="white"/>
</clipPath>
</defs>
</svg>
