<svg width="200" height="44" viewBox="0 0 200 44" fill="none" xmlns="http://www.w3.org/2000/svg">
<g clip-path="url(#clip0_76_2)">
<path d="M54.4 13.2C54.1 12.2 53.5 11.3 52.9 10.6C51.6 9.3 49.7 8.6 46.8 8.5C45.3 8.4 43.9 8.7 42.6 9.4C41.3 10 40.3 10.9 39.7 11.9H39.5L39 9.5C38.9 9.1 38.6 8.9 38.2 8.9H35.8C35.4 8.9 35 9.2 35 9.7V30.9C35 31.3 35.3 31.7 35.8 31.7H39.1C39.5 31.7 39.9 31.4 39.9 30.9V20.2C39.9 17.4 40.4 15.4 41.3 14.2C41.8 13.6 42.4 13.1 43.1 12.8C43.8 12.5 44.7 12.3 45.7 12.3C47.2 12.3 48.3 12.7 49 13.6C49.7 14.5 50 15.8 50 17.5V30.7C50 31.1 50.3 31.5 50.8 31.5H54.1C54.3 31.5 54.5 31.4 54.7 31.3C54.9 31.2 55 31 55.1 30.9V16.8C54.9 15.4 54.7 14.2 54.4 13.2V13.2ZM172.5 11.4C172.3 11.3 172.2 11.2 172 11.2H168.6C168.4 11.2 168.2 11.3 168.1 11.4C168 11.5 167.9 11.7 167.9 11.9V30.7C167.9 30.9 168 31 168.1 31.1C168.3 31.2 168.4 31.3 168.6 31.3H172C172.2 31.3 172.4 31.2 172.5 31.1C172.7 31 172.7 30.8 172.7 30.6V11.8C172.7 11.7 172.6 11.5 172.5 11.4ZM79.2 14.1C78.8 12.9 78.1 11.8 77.3 10.9C76.4 10 75.4 9.3 74.3 8.9C73.1 8.4 71.8 8.2 70.3 8.2C68.7 8.2 67.3 8.5 66 9C64.7516 9.52358 63.6522 10.3481 62.8 11.4C61 13.5 60.1 16.4 60.1 20.1C60.1 21.9 60.3 23.5 60.8 24.9C61.3 26.3 62 27.5 63 28.5C65 30.5 67.7 31.6 71.1 31.6C72.6 31.6 73.8 31.5 75.2 31.4C76.4 31.1 77.4 30.8 78.2 30.4C78.5 30.2 78.7 29.9 78.7 29.6V27.5C78.7 27.2 78.6 27 78.3 26.8C78.1 26.6 77.8 26.6 77.5 26.7C76.7 27 75.9 27.3 75 27.5C73.8 27.7 72.6 27.9 71.3 27.9C70.3 27.9 69.4 27.7 68.6 27.4C67.8 27.1 67.2 26.7 66.6 26.1C65.6 25.1 65.1 23.7 64.9 22C64.9 21.7 64.9 21.5 65.1 21.3C65.3 21.1 65.5 21 65.7 21H78.8C79.3 21 79.7 20.6 79.7 20.1V18.3C79.8 16.8 79.6 15.3 79.2 14.1V14.1ZM65.1 16.5C65.3 15.2 65.8 14.1 66.5 13.3C66.9 12.8 67.5 12.4 68.1 12.2C68.7 12 69.4 11.8 70.1 11.8C70.9 11.8 71.5 11.9 72.1 12.2C72.7 12.4 73.2 12.8 73.7 13.3C74.4 14 74.8 15.1 75 16.5C75 16.8 75 17 74.8 17.2C74.6 17.4 74.4 17.5 74.2 17.5H65.9C65.6 17.5 65.4 17.4 65.2 17.2C65.1 17.1 65 16.9 65 16.7C65.1 16.6 65.1 16.5 65.1 16.5V16.5ZM103.6 8.8C103.4 8.6 103.2 8.5 102.9 8.5H99.5C99.2 8.5 98.9 8.7 98.7 9L94.3 21.6C93.4 24.4 93 26 92.9 26.9H92.8C92.7 25.6 92.2 23.9 91.4 21.6L87.1 9C87 8.7 86.7 8.5 86.3 8.5H83C82.7 8.5 82.5 8.6 82.3 8.8C82.2 9 82.1 9.3 82.2 9.5L90.1 30.4C90.2 30.6 90.3 30.7 90.4 30.8C90.5 30.9 90.7 30.9 90.9 30.9H95C95.3 30.9 95.6 30.7 95.8 30.4L103.8 9.5V9.2C103.8 9.1 103.7 8.9 103.6 8.8V8.8ZM124.5 12.5C124.1 11.5 123.6 10.7 122.8 10.1C121.3 8.8 119.2 8.2 116.3 8.2C115.1 8.2 113.8 8.4 112.2 8.7C111.1 8.9 110.1 9.3 109.3 9.6C109 9.7 108.8 9.9 108.7 10.2C108.6 10.5 108.6 10.8 108.7 11.1L109.3 12.4C109.4 12.7 109.6 12.9 109.9 13C110.2 13.1 110.5 13.1 110.8 13C111.5 12.8 112.1 12.5 112.9 12.3C114 12 115.1 11.8 116.2 11.8C116.9 11.8 117.5 11.9 118 12C118.5 12.2 118.9 12.4 119.3 12.8C120 13.5 120.3 14.6 120.3 16V17.2L116.4 17.3C112.9 17.4 110.2 18.1 108.5 19.3C106.8 20.5 105.9 22.2 105.9 24.6C105.9 25.7 106.1 26.7 106.4 27.5C106.7 28.3 107.2 29.1 107.8 29.7C108.4 30.3 109.2 30.7 110.1 31C111 31.3 112 31.5 113 31.5C114.7 31.5 116.1 31.3 117.2 30.8C117.7 30.6 118.3 30.2 118.9 29.7C119.4 29.2 120 28.7 120.5 28H120.7L121.4 30.3C121.5 30.8 122 31.1 122.5 31.1H123.8C124.1 31.1 124.4 31 124.6 30.7C124.8 30.5 124.9 30.2 124.9 29.9V16C125 14.6 124.9 13.5 124.5 12.5V12.5ZM111.9 27C111.3 26.5 111 25.7 111 24.7C111 23.3 111.5 22.3 112.5 21.7C113.5 21 115.1 20.7 117.4 20.6L119.1 20.5C119.4 20.5 119.7 20.6 119.9 20.8C120.1 21 120.3 21.3 120.3 21.6V22.3C120.3 23.2 120.2 24 119.9 24.6C119.6 25.3 119.2 25.9 118.7 26.3C118.2 26.8 117.5 27.2 116.8 27.4C116.1 27.6 115.3 27.8 114.5 27.8C113.3 27.9 112.4 27.6 111.9 27V27ZM115.8 11.9H115.6H115.8ZM115 11.9H114.8H115ZM114.2 12H114C114.1 12.1 114.1 12.1 114.2 12ZM113.4 12.2H113.2C113.2 12.3 113.3 12.2 113.4 12.2ZM162.7 8.9C162.7 8.6 162.6 8.5 162.5 8.4C162.4 8.3 162.2 8.2 162 8.2C161.5 8.1 161.3 8.1 160.7 8.1C159.2 8.1 158 8.5 156.9 9.3C155.7 10.1 154.7 11.2 154 12.5H153.8L153.3 9.1C153.2 8.7 152.9 8.5 152.6 8.5H150C149.6 8.5 149.3 8.8 149.3 9.3V30.5C149.3 30.9 149.6 31.3 150 31.3H153.3C153.7 31.3 154 31 154 30.5V19.4C154 18.4 154.2 17.5 154.4 16.7C154.7 15.9 155.1 15.2 155.7 14.6C156.8 13.3 158.4 12.7 160.3 12.7C160.8 12.7 161.3 12.8 161.7 12.8C161.9 12.8 162 12.8 162.2 12.7C162.4 12.6 162.5 12.4 162.5 12.1L162.7 8.9V8.9ZM172.3 3.7C171.8 3.2 171.1 3 170.3 3C169.4 3 168.7 3.2 168.2 3.7C167.7 4.1 167.5 4.8 167.5 5.7C167.5 6.5 167.7 7.2 168.2 7.6C168.7 8 169.4 8.3 170.3 8.3C171.2 8.3 171.8 8.1 172.3 7.6C172.7 7.2 173 6.5 173 5.7C173 4.7 172.8 4.1 172.3 3.7V3.7Z" fill="#3A4145"/>
<path d="M4.20002 8.19998C4.50002 7.29998 8.90002 7.49998 10.2 7.69998C13.2 8.29998 15.7 8.99998 18.9 11.5C21.7 13.8 24.4 17.5 23.8 20.7C23.7 21.3 23.6 21.9 23 22.5C21.5 23.9 20.2 24.4 18.7 24.9C16.4 25.8 13.9 26.2 13.2 26.3C11.8 26.5 9.30002 26.5 8.90002 26.3C8.30002 25.9 9.80002 25.3 10.8 23C11.6 20.9 11.5 18.3 11.5 17.7C10.7 9.89998 3.70002 9.59998 4.20002 8.19998V8.19998ZM0.200019 27.9C0.400019 27.5 2.20002 28.5 5.70002 29C9.20002 29.5 12 29.2 13.7 28.9C20.6 28 24 25 24.7 25.9C25.3 26.8 23 30.3 19.7 32.3C15 35.2 10 34.1 8.70002 33.8C3.70002 32.5 -0.0999811 28.6 0.200019 27.9V27.9Z" fill="#4AA9DA"/>
<path d="M143.7 27.4C143.6 27.3 143.4 27.3 143.3 27.3C142.3 27.5 141.3 27.7 140.4 27.7C139.5 27.7 138.7 27.4 138.3 26.9C137.7 26.3 137.5 25.5 137.5 24.3V12.7C137.5 12.5 137.7 12.3 137.9 12.3H143.3C143.6 12.3 143.7 12.1 143.7 11.9V9.2C143.7 8.9 143.5 8.8 143.3 8.8H137.9C137.7 8.8 137.5 8.6 137.5 8.4V4.4C137.5 4.1 137.3 4 137.1 4H135C134.8 4 134.6 4.1 134.6 4.3L133.1 8.6C133.1 8.7 133 8.7 133 8.7L132.9 8.8L130 10.3C129.9 10.4 129.8 10.5 129.8 10.7V12C129.8 12.3 130 12.4 130.2 12.4H132.3C132.5 12.4 132.7 12.6 132.7 12.8V24.4C132.7 25.6 132.8 26.6 133.1 27.5C133.4 28.4 133.8 29.1 134.4 29.7C135 30.3 135.7 30.7 136.5 31C137.3 31.3 138.3 31.4 139.5 31.4C140.5 31.4 141.3 31.3 142.1 31.2C142.7 31.1 143.3 31 143.8 30.8C144 30.7 144.1 30.5 144.1 30.4V27.7C143.8 27.6 143.8 27.5 143.7 27.4V27.4ZM199.2 14.9C198.8 13.5 198.2 12.2 197.4 11.2C195.9 9.2 193.7 8.1 190.8 8.1C187.8 8.1 185.5 9.2 184.1 11.5H183.9C183.8 10.7 183.6 10.1 183.5 9.6C183.5 9.5 183.4 9.3 183.4 9.2C183.3 8.8 182.9 8.5 182.5 8.5H180.3C179.8 8.5 179.4 8.9 179.4 9.4V40C179.4 40.5 179.8 40.9 180.3 40.9H183.2C183.7 40.9 184.1 40.5 184.1 40V31.7C184.1 31.3 184 30.5 183.9 29.1V28.7V28.2H184.2C185 29.2 186 30 187.1 30.5C188.2 31 189.5 31.3 190.9 31.3C192.3 31.3 193.6 31.1 194.7 30.6C195.8 30.1 196.7 29.3 197.5 28.3C198.3 27.3 198.9 26 199.3 24.6C199.7 23.2 199.9 21.5 199.9 19.7C199.7 17.9 199.6 16.3 199.2 14.9V14.9ZM192.6 26.5C192.5 26.6 192.4 26.7 192.3 26.7L192.2 26.8C192.1 26.8 192.1 26.9 192 26.9C191.4 27.2 190.6 27.4 189.8 27.4C188.8 27.4 187.9 27.2 187.2 26.9C186.5 26.6 185.9 26.1 185.5 25.5C185.1 24.9 184.8 24.1 184.5 23.1C184.3 22.1 184.2 20.9 184.2 19.6V18.9C184.2 17.8 184.3 16.9 184.4 16.1C184.4 16 184.4 15.9 184.5 15.8C184.5 15.7 184.5 15.6 184.6 15.5V15.4C184.7 15.2 184.7 15 184.8 14.9V14.8C184.9 14.6 184.9 14.5 185 14.3V14.2C185.1 14.1 185.1 14 185.2 13.8L185.3 13.7C185.3 13.6 185.4 13.6 185.4 13.5C186.2 12.4 187.6 11.9 189.5 11.9C190.4 11.9 191.1 12.1 191.8 12.4C192.4 12.7 193 13.2 193.5 13.8C194.4 15 194.8 17 194.8 19.5C194.8 20.8 194.7 21.9 194.5 22.8C194.3 23.8 193.9 24.6 193.5 25.3C193.5 25.4 193.4 25.4 193.4 25.5L193.3 25.6L193 25.9L192.9 26L192.6 26.3C192.7 26.4 192.6 26.4 192.6 26.5V26.5Z" fill="#3A4145"/>
</g>
<defs>
<clipPath id="clip0_76_2">
<rect width="200" height="44" fill="white"/>
</clipPath>
</defs>
</svg>
