<svg width="25" height="27" viewBox="0 0 25 27" fill="none" xmlns="http://www.w3.org/2000/svg">
<path d="M4.01661 0.670561C4.31661 -0.229439 8.71661 -0.0294394 10.0166 0.170561C13.0166 0.770561 15.5166 1.47056 18.7166 3.97056C21.5166 6.27056 24.2166 9.97056 23.6166 13.1706C23.5166 13.7706 23.4166 14.3706 22.8166 14.9706C21.3166 16.3706 20.0166 16.8706 18.5166 17.3706C16.2166 18.2706 13.7166 18.6706 13.0166 18.7706C11.6166 18.9706 9.11661 18.9706 8.71661 18.7706C8.11661 18.3706 9.61661 17.7706 10.6166 15.4706C11.4166 13.3706 11.3166 10.7706 11.3166 10.1706C10.5166 2.37056 3.51661 2.07056 4.01661 0.670561ZM0.0166083 20.3706C0.216608 19.9706 2.01661 20.9706 5.51661 21.4706C9.01661 21.9706 11.8166 21.6706 13.5166 21.3706C20.4166 20.4706 23.8166 17.4706 24.5166 18.3706C25.1166 19.2706 22.8166 22.7706 19.5166 24.7706C14.8166 27.6706 9.81661 26.5706 8.51661 26.2706C3.51661 24.9706 -0.283392 21.0706 0.0166083 20.3706Z" fill="white"/>
</svg>
