<svg width="89" height="89" viewBox="0 0 89 89" fill="none" xmlns="http://www.w3.org/2000/svg">
<path d="M27.5636 17.6928L27.5638 17.6929L27.5681 17.6802C27.5762 17.656 27.6339 17.5453 27.9151 17.3981C28.1837 17.2576 28.5734 17.1282 29.0782 17.0183C30.0837 16.7993 31.4215 16.6835 32.8597 16.6425C35.7246 16.5609 38.8602 16.7788 40.2766 16.9924C46.9224 18.3061 52.4006 19.8259 59.4379 25.2557C62.5192 27.7571 65.5362 31.013 67.6132 34.4957C69.697 37.9898 70.7921 41.6382 70.1617 44.9593L70.1616 44.9593L70.1595 44.9719C69.9383 46.2829 69.7378 47.4263 68.5563 48.5975C65.3051 51.5927 62.5018 52.6615 59.1834 53.7543L59.1683 53.7592L59.1535 53.7649C54.0818 55.7255 48.5522 56.6008 47.0007 56.8197C45.4756 57.035 43.3283 57.1447 41.4455 57.1447C40.5058 57.1447 39.6433 57.1174 38.9667 57.0639C38.6278 57.0371 38.344 57.0044 38.1245 56.9672C38.0148 56.9487 37.9273 56.93 37.8604 56.9122C37.8495 56.9093 37.8394 56.9065 37.8302 56.9038C37.8803 56.8061 37.9735 56.6701 38.1294 56.4778C38.2811 56.2906 38.468 56.0789 38.6926 55.8244L38.7297 55.7825C39.6892 54.6952 41.1392 53.0356 42.2969 50.4052L42.3027 50.3918L42.308 50.3783C43.9984 45.9946 43.9381 40.6772 43.9174 38.8501C43.9156 38.6899 43.9141 38.5565 43.9141 38.4529V38.4206L43.9108 38.3884C42.9932 29.5502 38.4992 24.9304 34.3935 22.1508C32.9492 21.173 31.5278 20.4087 30.3655 19.7838C29.9016 19.5343 29.4789 19.3071 29.1126 19.0973C28.4437 18.7143 27.9929 18.4076 27.7397 18.1362C27.6186 18.0065 27.5712 17.9141 27.554 17.8565C27.5403 17.8111 27.5376 17.7648 27.5636 17.6928ZM37.765 56.8716C37.7651 56.8716 37.7656 56.8721 37.7664 56.8731C37.7654 56.8721 37.765 56.8716 37.765 56.8716ZM37.7963 56.9852C37.7961 56.9863 37.796 56.9868 37.796 56.9868L37.7963 56.9852ZM61.2925 70.1482L61.2882 70.1507C51.0213 76.409 40.0784 74.0491 37.1793 73.3884C31.6984 71.9791 26.8622 69.1579 23.4797 66.4955C21.7875 65.1636 20.4751 63.8839 19.6344 62.8582C19.212 62.3428 18.9245 61.9107 18.7642 61.5823C18.7309 61.5141 18.7048 61.4538 18.6847 61.4013C18.7534 61.4084 18.8367 61.42 18.9367 61.4378C19.4375 61.5269 20.1467 61.7285 21.1171 62.0044L21.2462 62.0411C23.2922 62.6226 26.2864 63.46 30.2406 64.0181C38.1332 65.1319 44.4525 64.4661 48.299 63.7965C56.0792 62.7924 61.8864 60.6191 65.9297 58.9548C66.4727 58.7313 66.9794 58.519 67.4523 58.3208C68.7587 57.7734 69.8065 57.3343 70.6437 57.0684C71.2128 56.8877 71.6207 56.8093 71.9057 56.8131C72.1436 56.8163 72.234 56.8734 72.2816 56.9252C72.3391 57.023 72.3907 57.2025 72.3706 57.5115C72.3494 57.8387 72.2506 58.2569 72.0597 58.7581C71.6786 59.759 70.9662 60.9977 69.9676 62.3355C67.9728 65.008 64.9037 67.9861 61.2925 70.1482ZM18.625 61.1688C18.625 61.1688 18.625 61.1692 18.625 61.1699L18.625 61.1688Z" stroke="#494949" stroke-width="1.25"/>
</svg>
