<svg width="26" height="27" viewBox="0 0 26 27" fill="none" xmlns="http://www.w3.org/2000/svg">
<g clip-path="url(#clip0_11_13)">
<path d="M13 26.74H13.01C20.181 26.74 26 20.921 26 13.75V13.74C26 6.55901 20.181 0.740005 13 0.740005C5.819 0.740005 0 6.55901 0 13.74V13.75C0.01 20.931 5.819 26.74 13 26.74Z" fill="#59B8E9"/>
<path d="M18 8.00101C17.823 8.01001 17.659 8.06501 17.515 8.12901C17.379 8.18901 16.863 8.43001 16.048 8.81101L13.004 10.236L6.789 13.151C6.739 13.175 6.565 13.235 6.381 13.392C6.196 13.549 6 13.875 6 14.238C6 14.53 6.128 14.821 6.289 14.994C6.449 15.168 6.62 15.254 6.766 15.318L9.246 16.424C9.356 16.788 9.95 18.77 10.087 19.255C10.178 19.575 10.265 19.776 10.377 19.935C10.434 20.015 10.499 20.085 10.578 20.14C10.6102 20.1612 10.6444 20.1793 10.68 20.194L10.682 20.195C10.69 20.199 10.697 20.205 10.705 20.208C10.721 20.214 10.731 20.214 10.752 20.219C10.8288 20.2481 10.9099 20.2643 10.992 20.267C11.309 20.267 11.502 20.077 11.502 20.077L11.514 20.067L13.144 18.53L15.122 20.569C15.15 20.612 15.409 21 15.982 21C16.322 21 16.592 20.814 16.765 20.616C16.938 20.418 17.045 20.21 17.091 19.948C17.134 19.7 18.956 9.50301 18.956 9.50301L18.953 9.51601C19.007 9.25101 19.021 9.00401 18.962 8.76001C18.9042 8.51619 18.7595 8.30181 18.555 8.157C18.3919 8.04594 18.1971 7.99085 18 8.00001V8.00101ZM17.898 9.23501C17.895 9.252 17.9 9.24401 17.895 9.26401V9.27101L17.893 9.27801C17.893 9.27801 16.093 19.345 16.027 19.728C16.032 19.699 16.01 19.757 15.987 19.791C15.955 19.767 15.889 19.736 15.889 19.736L15.879 19.723L13.178 16.938L11.268 18.738L11.836 16.258C11.836 16.258 15.387 12.251 15.601 12.018C15.773 11.831 15.809 11.766 15.809 11.702C15.809 11.616 15.769 11.553 15.676 11.553C15.593 11.553 15.482 11.641 15.422 11.683C14.646 12.222 11.238 14.387 9.711 15.355L7.211 14.24L7.218 14.236L13.431 11.321C14.582 10.781 15.661 10.276 16.476 9.89601C17.277 9.52101 17.834 9.26301 17.898 9.23501Z" fill="white"/>
</g>
<defs>
<clipPath id="clip0_11_13">
<rect width="26" height="27" fill="white"/>
</clipPath>
</defs>
</svg>
