<svg width="89" height="89" viewBox="0 0 89 89" fill="none" xmlns="http://www.w3.org/2000/svg">
<g clip-path="url(#clip0_53_54)">
<path d="M55.625 18.5416V25.9583" stroke="#2C3E50" stroke-width="1.25" stroke-linecap="round" stroke-linejoin="round"/>
<path d="M55.625 40.7916V48.2083" stroke="#2C3E50" stroke-width="1.25" stroke-linecap="round" stroke-linejoin="round"/>
<path d="M55.625 63.0416V70.4583" stroke="#2C3E50" stroke-width="1.25" stroke-linecap="round" stroke-linejoin="round"/>
<path d="M18.5417 18.5416H70.4583C72.4254 18.5416 74.3118 19.323 75.7027 20.7139C77.0936 22.1048 77.875 23.9913 77.875 25.9583V37.0833C75.908 37.0833 74.0215 37.8647 72.6306 39.2556C71.2397 40.6465 70.4583 42.5329 70.4583 44.5C70.4583 46.467 71.2397 48.3534 72.6306 49.7443C74.0215 51.1352 75.908 51.9166 77.875 51.9166V63.0416C77.875 65.0086 77.0936 66.8951 75.7027 68.286C74.3118 69.6769 72.4254 70.4583 70.4583 70.4583H18.5417C16.5746 70.4583 14.6882 69.6769 13.2973 68.286C11.9064 66.8951 11.125 65.0086 11.125 63.0416V51.9166C13.092 51.9166 14.9785 51.1352 16.3694 49.7443C17.7603 48.3534 18.5417 46.467 18.5417 44.5C18.5417 42.5329 17.7603 40.6465 16.3694 39.2556C14.9785 37.8647 13.092 37.0833 11.125 37.0833V25.9583C11.125 23.9913 11.9064 22.1048 13.2973 20.7139C14.6882 19.323 16.5746 18.5416 18.5417 18.5416" stroke="#494949" stroke-width="1.25" stroke-linecap="round" stroke-linejoin="round"/>
</g>
<defs>
<clipPath id="clip0_53_54">
<rect width="89" height="89" fill="white"/>
</clipPath>
</defs>
</svg>
